<?xml version="1.0" encoding="UTF-8"?>
<svg id="Layer_2" data-name="Layer 2" xmlns="http://www.w3.org/2000/svg" viewBox="0 0 264.97 336.24">
  <defs>
    <style>
      .cls-1, .cls-2, .cls-3 {
        stroke-width: 0px;
      }

      .cls-2 {
        fill: #939598;
      }

      .cls-3 {
        fill: #e2e0df;
      }
    </style>
  </defs>
  <g id="Layer_1-2" data-name="Layer 1">
    <g>
      <g>
        <path class="cls-3" d="m7.21,3.5h250.56c2.04,0,3.7,1.66,3.7,3.7v321.84c0,2.04-1.66,3.7-3.7,3.7H7.21c-2.04,0-3.7-1.66-3.7-3.7V7.2c0-2.04,1.66-3.7,3.7-3.7Z"/>
        <path class="cls-2" d="m257.77,7c.11,0,.2.09.2.2v321.84c0,.11-.09.2-.2.2H7.21c-.11,0-.2-.09-.2-.2V7.2c0-.11.09-.2.2-.2h250.56m0-7H7.21C3.23,0,0,3.22,0,7.2v321.84c0,3.98,3.22,7.2,7.2,7.2h250.56c3.98,0,7.2-3.22,7.2-7.2V7.2c0-3.98-3.22-7.2-7.2-7.2h0Z"/>
      </g>
      <g>
        <circle class="cls-2" cx="12.97" cy="323.24" r="12.76"/>
        <path class="cls-1" d="m12.97,318.98c2.35,0,4.25,1.9,4.25,4.25s-1.9,4.25-4.25,4.25-4.25-1.9-4.25-4.25,1.9-4.25,4.25-4.25Z"/>
      </g>
      <g>
        <circle class="cls-2" cx="252.12" cy="323.27" r="12.76" transform="translate(-154.74 272.96) rotate(-45)"/>
        <path class="cls-1" d="m252.12,319.02c2.35,0,4.25,1.9,4.25,4.25s-1.9,4.25-4.25,4.25-4.25-1.9-4.25-4.25,1.9-4.25,4.25-4.25Z"/>
      </g>
      <g>
        <circle class="cls-2" cx="252.12" cy="12.82" r="12.76" transform="translate(88.82 205.33) rotate(-52.6)"/>
        <path class="cls-1" d="m252.12,8.57c2.35,0,4.25,1.9,4.25,4.25s-1.9,4.25-4.25,4.25-4.25-1.9-4.25-4.25,1.9-4.25,4.25-4.25Z"/>
      </g>
      <g>
        <circle class="cls-2" cx="12.76" cy="12.95" r="12.76" transform="translate(-.79 .83) rotate(-3.63)"/>
        <path class="cls-1" d="m12.76,8.7c2.35,0,4.25,1.9,4.25,4.25s-1.9,4.25-4.25,4.25-4.25-1.9-4.25-4.25,1.9-4.25,4.25-4.25Z"/>
      </g>
    </g>
  </g>
</svg>